<svg xmlns="http://www.w3.org/2000/svg" width="17.751" height="18.86" viewBox="0 0 17.751 18.86">
  <g id="Grupo_553" data-name="Grupo 553" transform="translate(-1 -4)">
    <g id="Grupo_305" data-name="Grupo 305" transform="translate(1 4)">
      <path id="Trazado_40" data-name="Trazado 40" d="M9.875,15C6.913,15,1,16.487,1,19.438v2.219H18.751V19.438C18.751,16.487,12.838,15,9.875,15Z" transform="translate(-1 -2.796)" fill="#7b8f99"/>
      <path id="Trazado_43" data-name="Trazado 43" d="M4.794,9.547h9.463A.545.545,0,0,0,14.8,9V8.981a.545.545,0,0,0-.544-.544h-.3A4.434,4.434,0,0,0,11.739,4.61V5.664a.555.555,0,1,1-1.109,0V4.155A4.538,4.538,0,0,0,9.52,4a4.538,4.538,0,0,0-1.109.155V5.664a.555.555,0,1,1-1.109,0V4.61A4.434,4.434,0,0,0,5.082,8.438H4.794a.545.545,0,0,0-.544.544v.033A.542.542,0,0,0,4.794,9.547Z" transform="translate(-0.644 -4)" fill="#7b8f99"/>
      <path id="Trazado_44" data-name="Trazado 44" d="M9.422,13.328A4.438,4.438,0,0,0,13.7,10H5.14A4.438,4.438,0,0,0,9.422,13.328Z" transform="translate(-0.547 -3.343)" fill="#7b8f99"/>
    </g>
  </g>
</svg>
